<svg id="Layer_1" data-name="Layer 1" xmlns="http://www.w3.org/2000/svg" viewBox="0 0 597.44 597.44"><defs><style>.cls-1{fill:#579fbf;}.cls-2{fill:#fff;}.cls-3{fill:#ff5f5f;}</style></defs><title>ko-fi</title><circle id="circle" class="cls-1" cx="298.72" cy="298.72" r="298.72"/><path id="cup" class="cls-2" d="M669.3,520.13a168.6,168.6,0,0,1-36.15.62V398.62h38s42.39,11.83,42.39,56.7c0,41.13-21.19,57.33-44.26,64.81m105.07-85.74c-16.63-87.82-104.44-98.74-104.44-98.74H276.6c-13,0-14.59,17.15-14.59,17.15s-1.75,157.43-.48,254.11c3.52,52.1,55.59,57.44,55.59,57.44s177.7-.52,257.2-1c52.41-9.18,57.68-55.16,57.16-80.3C725,588.2,791,522.21,774.37,434.39" transform="translate(-201.28 -201.28)"/><path id="heart" class="cls-3" d="M446.07,637.39c5.29,2.67,8.67-.64,8.67-.64S532.22,566,567.12,525.32c31-36.43,33.06-97.82-20.25-120.76s-97.17,27-97.17,27c-38-41.84-95.6-39.72-122.22-11.41s-17.33,76.9,2.53,104c18.65,25.38,100.6,98.43,113,110.78a25.86,25.86,0,0,0,3,2.52" transform="translate(-201.28 -201.28)"/></svg>