<svg version="1.0" xmlns="http://www.w3.org/2000/svg"
 width="2400.000000pt" height="2400.000000pt" viewBox="0 0 2400.000000 2400.000000"
 preserveAspectRatio="xMidYMid meet">
<g transform="translate(0.000000,2400.000000) scale(0.100000,-0.100000)"
fill="#000000" stroke="none">
<path d="M10678 21353 c-25 -28 -570 -788 -728 -1013 -78 -113 -146 -209 -151
-214 -4 -5 -44 24 -89 64 -194 170 -424 283 -665 325 -93 16 -1134 85 -1285
85 -248 0 -523 -85 -745 -231 -104 -69 -305 -270 -374 -374 -124 -189 -203
-411 -225 -630 -4 -33 -22 -318 -42 -634 -30 -499 -33 -587 -24 -670 33 -271
137 -515 311 -725 234 -282 569 -458 939 -491 80 -7 694 -45 729 -45 l26 0 -7
-137 c-8 -163 5 -462 27 -623 37 -266 123 -575 224 -808 l49 -114 -45 -19
c-142 -61 -206 -90 -368 -169 -769 -377 -1476 -876 -2115 -1495 -1395 -1352
-2171 -2897 -2434 -4845 -102 -752 -130 -1455 -119 -2966 l6 -881 470 499
c259 274 474 498 478 498 5 0 9 -6 9 -13 0 -23 139 -444 195 -592 162 -424
324 -765 553 -1162 l77 -133 619 0 618 0 -18 28 c-10 15 -45 65 -79 112 -72
100 -217 324 -302 465 -359 601 -645 1330 -787 2013 -20 95 -36 177 -36 182 0
5 304 332 676 727 786 834 726 772 720 753 -3 -8 -154 -483 -336 -1055 -182
-572 -342 -1073 -355 -1113 l-24 -74 24 16 c14 9 298 216 633 459 703 512 786
571 982 700 2129 1393 4659 1698 7468 902 108 -31 251 -70 316 -86 623 -152
1250 -138 1808 41 528 169 1005 518 1297 950 33 50 63 85 66 78 13 -39 53
-331 77 -558 17 -167 17 -966 0 -1185 -30 -378 -60 -626 -113 -940 -144 -851
-418 -1631 -806 -2299 -35 -60 -63 -110 -63 -112 0 -2 264 -3 587 -2 l587 3
39 80 c354 720 619 1644 736 2565 88 686 109 1463 56 2022 -120 1255 -565
2475 -1306 3578 -197 294 -379 531 -628 820 -157 183 -633 659 -811 812 -795
682 -1614 1164 -2540 1493 -74 27 -136 50 -138 51 -2 1 17 62 42 135 200 572
229 1144 90 1717 -213 873 -790 1599 -1593 2001 -429 216 -1144 391 -1592 391
l-58 0 -6 55 c-10 76 2 206 32 344 14 64 29 134 33 156 24 111 144 433 247
663 32 69 52 127 47 131 -10 9 -863 511 -868 511 -1 0 -10 -8 -18 -17z m-2336
-1817 c514 -32 539 -35 591 -59 71 -32 126 -83 162 -149 25 -46 30 -66 33
-150 l4 -96 -70 -129 c-172 -312 -368 -746 -463 -1028 -19 -55 -34 -101 -34
-102 0 -1 -207 11 -460 27 -321 20 -473 34 -503 44 -126 45 -211 157 -220 291
-6 106 56 1080 73 1141 39 135 173 241 310 243 22 0 282 -15 577 -33z m2003
-601 c117 -188 318 -346 525 -413 116 -38 152 -43 375 -52 311 -13 550 -58
873 -166 540 -180 950 -539 1189 -1041 224 -470 255 -1007 87 -1497 -48 -139
-159 -362 -236 -473 -82 -118 -215 -271 -304 -349 l-69 -61 -150 185 c-82 102
-172 209 -198 238 -143 157 -364 278 -583 320 -129 24 -357 15 -474 -19 -298
-85 -529 -268 -671 -531 -62 -116 -119 -302 -119 -391 0 -19 -4 -36 -10 -40
-14 -9 -191 84 -310 162 -495 326 -789 804 -871 1413 -19 139 -16 477 5 635
85 627 323 1224 804 2012 48 78 88 143 88 143 1 0 23 -34 49 -75z m1421 -4171
c32 -18 289 -328 1120 -1350 594 -730 1094 -1349 1113 -1376 28 -38 36 -60 39
-107 5 -76 -11 -124 -61 -178 -47 -51 -124 -79 -185 -68 -84 15 -115 40 -242
196 l-122 150 -41 -34 c-23 -18 -188 -152 -367 -298 -421 -343 -391 -322 -454
-327 -91 -7 -107 6 -313 257 -187 229 -222 282 -223 336 0 78 25 104 410 418
201 164 378 308 394 321 l30 23 -153 189 c-84 104 -157 190 -162 192 -5 2 -93
-65 -195 -149 -103 -84 -203 -161 -223 -171 -76 -39 -144 -18 -222 71 -71 81
-89 115 -89 174 0 84 17 105 231 279 110 89 199 164 199 167 0 3 -178 223
-394 489 -217 266 -400 497 -408 515 -20 50 -16 145 10 194 57 109 200 150
308 87z m2168 -465 c766 -259 1433 -615 2061 -1099 745 -575 1478 -1416 1752
-2010 144 -311 210 -570 220 -860 6 -197 -9 -334 -53 -487 -141 -489 -534
-854 -1062 -988 -167 -42 -300 -57 -502 -58 -292 -1 -460 26 -880 143 -947
264 -1700 398 -2615 465 -358 26 -1039 22 -1425 -10 -1180 -95 -2218 -378
-3287 -895 -189 -92 -201 -96 -192 -71 4 14 270 846 589 1849 319 1002 584
1830 587 1839 4 9 2 14 -4 12 -6 -2 -988 -1041 -2183 -2309 -1195 -1268 -2206
-2339 -2247 -2380 l-74 -75 6 100 c36 603 76 962 156 1403 211 1169 686 2218
1410 3113 809 1000 1813 1754 2954 2218 l140 57 105 -88 c266 -224 575 -407
920 -546 205 -82 488 -165 658 -193 60 -10 72 -15 66 -28 -19 -45 -44 -142
-55 -207 -17 -105 -6 -318 21 -419 30 -114 106 -266 181 -365 l65 -85 -23 -79
c-32 -109 -47 -244 -39 -349 13 -175 82 -372 179 -510 75 -107 444 -553 499
-602 350 -315 870 -351 1263 -89 28 18 101 75 164 127 l114 94 50 -19 c187
-71 432 -81 642 -27 103 27 282 113 365 177 94 71 218 207 273 299 100 168
145 319 154 518 9 214 -41 416 -144 588 -27 43 -330 426 -675 851 l-627 771
97 90 c53 50 119 114 146 143 27 28 53 52 59 52 5 0 91 -28 191 -61z"/>
<path d="M7966 18956 c-9 -86 -36 -549 -33 -552 1 -1 136 -10 300 -19 217 -13
301 -15 306 -7 6 11 44 592 39 597 -2 2 -122 10 -268 19 -146 9 -282 18 -302
20 l-37 4 -5 -62z"/>
<path d="M9694 6435 c-221 -48 -393 -188 -489 -398 -45 -100 -59 -166 -59
-282 0 -124 14 -185 69 -300 111 -231 325 -375 580 -392 346 -22 659 221 725
565 19 95 8 250 -24 349 -71 220 -284 411 -511 458 -86 18 -209 18 -291 0z"/>
<path d="M14010 6435 c-226 -50 -436 -241 -506 -458 -32 -99 -43 -254 -24
-349 89 -460 592 -703 1007 -486 129 68 232 175 298 313 55 115 69 176 69 300
0 124 -14 185 -69 300 -87 181 -232 307 -420 365 -91 29 -263 36 -355 15z"/>
</g>
</svg>
